<svg xmlns="http://www.w3.org/2000/svg" width="512" height="128"><path d="M123.12 33.12 120.24 27.072A15.433 15.433 0 0 0 116.688 28.821 13.268 13.268 0 0 0 114.696 30.456Q112.464 32.688 111.384 35.64A18.084 18.084 0 0 0 110.304 41.891 20.916 20.916 0 0 0 110.304 41.904L110.304 75.744Q110.304 79.488 108.864 82.872 107.424 86.256 104.976 88.848 102.528 91.44 99.216 92.952A16.988 16.988 0 0 1 92.56 94.457 19.691 19.691 0 0 1 92.016 94.464Q88.704 94.464 85.392 93.672 82.08 92.88 79.344 91.008A12.845 12.845 0 0 1 75.728 87.204 15.912 15.912 0 0 1 74.952 85.824Q73.296 82.512 73.296 77.472L73.296 28.656 65.088 28.656 65.088 78.048A38.999 38.999 0 0 0 65.394 83.064Q65.8 86.189 66.744 88.776A19.78 19.78 0 0 0 69.269 93.604 17.246 17.246 0 0 0 71.64 96.264Q74.88 99.216 79.56 100.656 84.236 102.095 90.277 102.096A31.681 31.681 0 0 0 90.288 102.096 29.801 29.801 0 0 0 96.698 101.379 33.522 33.522 0 0 0 97.632 101.16Q101.376 100.224 104.688 98.352 108 96.48 110.304 93.6L110.304 109.584Q110.304 112.176 109.8 114.552A14.514 14.514 0 0 1 108.617 118.001 13.243 13.243 0 0 1 108.144 118.872Q106.992 120.816 105.192 122.256 103.392 123.696 100.944 124.704L103.248 130.896Q108.72 129.024 112.032 126.432 115.344 123.84 116.856 119.736 118.129 116.281 118.33 111.551A42.878 42.878 0 0 0 118.368 109.728L118.368 42.048Q118.368 38.432 119.255 36.59A4.226 4.226 0 0 1 119.808 35.712Q121.248 33.984 123.12 33.12ZM45.216 51.552 45.216 100.8 53.136 100.8 53.136 51.12Q53.136 46.512 52.056 42.84A21.819 21.819 0 0 0 49.768 37.61 19.905 19.905 0 0 0 48.888 36.288Q46.8 33.408 43.776 31.392 40.752 29.376 36.792 28.368 32.832 27.36 28.08 27.36 24.48 27.36 20.952 28.152 17.424 28.944 14.184 30.312A34.08 34.08 0 0 0 8.563 33.313 31.5 31.5 0 0 0 8.208 33.552L8.208 28.656 0 28.656 0 100.8 8.208 100.8 8.208 39.6A43.838 43.838 0 0 1 11.932 37.693 36.39 36.39 0 0 1 14.112 36.792Q16.992 35.712 20.088 35.136 23.184 34.56 26.496 34.56 29.952 34.56 33.264 35.424 36.576 36.288 39.312 38.232 42.048 40.176 43.632 43.416A14.381 14.381 0 0 1 44.742 46.692Q45.083 48.261 45.179 50.085A27.993 27.993 0 0 1 45.216 51.552ZM156.672 100.8 156.672 7.2 182.016 7.2 182.016 0 124.128 0 124.128 7.2 148.752 7.2 148.752 100.8 156.672 100.8ZM252.432 32.688 252.432 0 244.224 0 244.224 100.8A.111.111 0 0 0 244.215 100.8Q244.153 100.806 245.59 100.931A412.523 412.523 0 0 0 245.736 100.944Q247.392 101.088 250.128 101.304 252.864 101.52 255.96 101.736 259.056 101.952 262.008 102.096A147.706 147.706 0 0 0 264.09 102.184Q264.903 102.212 265.625 102.226A69.579 69.579 0 0 0 266.976 102.24Q271.809 102.341 276.184 101.878A60.123 60.123 0 0 0 279.864 101.376 31.206 31.206 0 0 0 285.948 99.735 25.309 25.309 0 0 0 290.304 97.56Q294.768 94.752 297.216 89.568A23.357 23.357 0 0 0 298.889 84.508Q299.664 80.919 299.664 76.464L299.664 49.104A29.122 29.122 0 0 0 299.323 44.52Q298.93 42.057 298.085 40A16.664 16.664 0 0 0 297.576 38.88Q295.488 34.704 292.032 32.184 288.576 29.664 284.328 28.512 280.08 27.36 275.76 27.36A55.302 55.302 0 0 0 270.107 27.638 45.417 45.417 0 0 0 266.904 28.08 51.864 51.864 0 0 0 261.562 29.3 44.051 44.051 0 0 0 259.272 30.024Q255.744 31.248 252.432 32.688ZM339.408 81.504 339.408 72.576 383.328 70.272 383.328 51.552Q383.328 44.827 381.175 40.004A19.463 19.463 0 0 0 380.232 38.16Q377.136 32.832 371.448 30.096A26.831 26.831 0 0 0 364.415 27.888 37.244 37.244 0 0 0 357.984 27.36 36.547 36.547 0 0 0 350.322 28.132 29.569 29.569 0 0 0 344.304 30.096Q338.256 32.832 334.8 38.304 331.344 43.776 331.344 51.984L331.344 81.504Q331.344 87.552 333.144 91.584 334.944 95.616 338.256 98.064A19.228 19.228 0 0 0 343.423 100.749 24.127 24.127 0 0 0 346.176 101.52Q350.784 102.528 356.256 102.528 361.728 102.528 368.064 100.728 374.4 98.928 379.728 95.76L376.56 89.568A71.902 71.902 0 0 1 368.975 92.943 62.401 62.401 0 0 1 366.048 93.96Q360.864 95.616 355.536 95.616A26.479 26.479 0 0 1 351.419 95.308 22.075 22.075 0 0 1 349.128 94.824 15.585 15.585 0 0 1 345.902 93.579 13.153 13.153 0 0 1 344.016 92.376Q341.856 90.72 340.632 88.056A12.504 12.504 0 0 1 339.753 85.29Q339.494 84 339.43 82.515A23.199 23.199 0 0 1 339.408 81.504ZM176.688 64.512 176.688 76.464A41.017 41.017 0 0 0 177.039 81.992Q177.628 86.318 179.208 89.568A20.78 20.78 0 0 0 182.524 94.527 17.901 17.901 0 0 0 186.12 97.56 25.409 25.409 0 0 0 192.482 100.445 32.427 32.427 0 0 0 196.488 101.376 63.688 63.688 0 0 0 204.017 102.172Q206.622 102.297 209.376 102.24 210.861 102.24 212.72 102.172A145.803 145.803 0 0 0 214.488 102.096Q217.44 101.952 220.536 101.736 223.632 101.52 226.296 101.304 228.96 101.088 230.616 100.944 232.272 100.8 232.128 100.8L232.128 59.328Q232.128 50.4 230.688 44.28A26.862 26.862 0 0 0 229.197 39.712Q227.873 36.668 225.864 34.488 222.48 30.816 216.72 29.16 212.535 27.957 206.754 27.628A80.695 80.695 0 0 0 202.176 27.504L201.888 33.696A52.845 52.845 0 0 1 209.735 34.266 48.863 48.863 0 0 1 210.24 34.344 23.737 23.737 0 0 1 214.452 35.405 19.202 19.202 0 0 1 217.368 36.72 12.317 12.317 0 0 1 222.092 41.453 14.785 14.785 0 0 1 222.264 41.76 13.441 13.441 0 0 1 223.487 45.011Q223.847 46.493 223.983 48.228A27.948 27.948 0 0 1 224.064 50.4Q220.752 48.384 216.648 46.656 212.544 44.928 208.08 43.848 203.616 42.768 198.864 42.768 194.544 42.768 190.584 43.92 186.624 45.072 183.456 47.592 180.288 50.112 178.488 54.288A20.549 20.549 0 0 0 177.2 58.595Q176.816 60.614 176.72 62.933A38.202 38.202 0 0 0 176.688 64.512ZM311.328 0 311.328 100.8 319.392 100.8 319.392 0 311.328 0ZM252.432 94.32 252.432 39.888A98.144 98.144 0 0 1 259.008 37.237 88.231 88.231 0 0 1 260.064 36.864Q263.808 35.568 267.768 34.848A44.421 44.421 0 0 1 272.971 34.229 54.516 54.516 0 0 1 276.336 34.128 17.011 17.011 0 0 1 278.21 34.238Q279.167 34.345 280.226 34.553A30.518 30.518 0 0 1 280.944 34.704Q283.536 35.28 286.056 36.864A10.709 10.709 0 0 1 289.02 39.675 14.046 14.046 0 0 1 290.16 41.544 12.843 12.843 0 0 1 291.186 44.38Q291.526 45.786 291.659 47.447A28.016 28.016 0 0 1 291.744 49.68L291.744 75.456Q291.744 80.64 290.664 84.456A14.349 14.349 0 0 1 288.711 88.696 12.974 12.974 0 0 1 286.92 90.792Q284.527 93.056 280.506 94.158A23.597 23.597 0 0 1 279.576 94.392 32.723 32.723 0 0 1 276.203 94.973Q273.162 95.345 269.355 95.345A83.004 83.004 0 0 1 267.696 95.328Q264.24 95.184 261.36 95.04 258.497 94.897 256.559 94.683A44.932 44.932 0 0 1 256.536 94.68Q254.592 94.464 253.512 94.392L252.432 94.32ZM224.064 57.168 224.064 94.176 223.416 94.248Q222.768 94.32 221.472 94.392 220.581 94.442 219.418 94.559A79.303 79.303 0 0 0 218.304 94.68 65.623 65.623 0 0 1 216.438 94.867Q215.458 94.951 214.369 95.021A108.396 108.396 0 0 1 214.056 95.04Q211.68 95.184 208.8 95.328A75.298 75.298 0 0 1 206.587 95.385Q200.85 95.445 196.848 94.536 192.978 93.656 190.492 91.822A11.355 11.355 0 0 1 189.432 90.936 13.251 13.251 0 0 1 186.106 85.824 16.292 16.292 0 0 1 185.688 84.528 27.873 27.873 0 0 1 184.913 80.598Q184.608 78.21 184.608 75.456L184.608 64.8A28.682 28.682 0 0 1 184.77 61.655Q184.943 60.091 185.301 58.78A12.768 12.768 0 0 1 185.976 56.88Q187.242 54.08 189.188 52.577A8.297 8.297 0 0 1 189.504 52.344Q191.664 50.832 193.968 50.256 196.272 49.68 198.144 49.68 202.752 49.68 207.216 50.688 211.68 51.696 216 53.424 220.32 55.152 224.064 57.168ZM375.264 50.544 375.264 63.072 339.408 64.656 339.408 52.128Q339.408 46.715 341.379 42.829A15.365 15.365 0 0 1 341.64 42.336Q343.872 38.304 348.048 36.216 352.224 34.128 357.84 34.128A21.439 21.439 0 0 1 362.731 34.664 17.274 17.274 0 0 1 366.768 36.144Q370.656 38.16 372.96 41.832 375.264 45.504 375.264 50.544Z" fill="#d20f39" transform="scale(0.95 0.9) translate(140 10)"/><rect width="112" height="112" x="8" y="8" fill="#d20f39"/><polygon points="16 108 64 16 112 108 72 76 76 64"/></svg>