<svg xmlns="http://www.w3.org/2000/svg" width="128" height="128"><g fill="none" stroke="#cdd6f4" stroke-width="2"><g transform="matrix(1.3 0 0 1.3 -5 -7)"><path d="M8 8 8 56 72 56 72 8 8 8 8 16 72 16"/><rect width="64" height="8" x="8" y="8" fill="#cdd6f4"/><rect width="64" height="40" x="8" y="16" fill="#1e1e2e"/><path d="M57 50 53 48 45 38 35 36 19 31 22 26 9 26 9 18 30 21 41 24" fill="#f9e2af" stroke="none"/><circle r="3" cx="59" cy="12" fill="#40a02b" stroke="none"/><circle r="3" fill="#d20f39" cx="68" cy="12" stroke="none"/></g><g transform="matrix(1.3 0 0 1.3 30 52)"><path d="M8 8 8 56 72 56 72 8 8 8 8 16 72 16"/><rect width="64" height="8" x="8" y="8" fill="#cdd6f4"/><rect width="64" height="40" x="8" y="16" fill="#1e1e2e"/><path fill="#f9e2af" stroke="none" d="M39.230769 55.384615 34.615385 47.692308 32.307692 46.153846 30 41.538462 30 38.461538 30.769231 36.923077 27.692308 25.384615 28.461538 20 34.615385 34.615385 45.384615 36.923077 44.615385 46.923077 50 55.384615"/><circle r="3" cx="59" cy="12" fill="#40a02b" stroke="none"/><circle r="3" fill="#d20f39" cx="68" cy="12" stroke="none"/></g></g></svg>