<svg xmlns="http://www.w3.org/2000/svg" width="128" height="128"><g fill="#7287fd" stroke="#eff1f5" transform="matrix(1.5 0 0 1.5 70 30)"><path d="M0 0l0 28 16-12-6 0 0-16Z"/><path d="M32 28 32 0 16 12 22 12 22 28Z"/></g><g stroke="#eff1f5" stroke-linecap="round"><circle r="40" cx="44" cy="84" fill="#209fb5"/><path d="M44 44l0 80m0-80c-20 16-28 48 0 80 24-32 20-64 0-80-36 12-44 60 0 80 40-20 36-68 0-80" fill="none"/></g><g fill="#eff1f5" stroke="#cdd6f4"><rect width="52" height="22" x="72" y="4"/><g stroke="none"><circle r="4" cx="88" cy="10" fill="#e64553"/><circle r="4" cx="98" cy="10" fill="#fe640b"/><circle r="4" cx="78" cy="10" fill="#40a02b"/></g></g></svg>