<svg xmlns="http://www.w3.org/2000/svg" width="128" height="128"><g transform="skewX(-5)"><rect width="83" height="52" x="24.062103" y="35" fill="#cdd6f4" stroke="#1e1e2e"/><polygon points="24.062103 35 61.686763 65 107.062103 35" fill="#7f849c" stroke="#1e1e2e"/></g><path d="M37 107c-48-29-28-64-5-84q1-12 18-14-9 6 2 5c57-4 81 47 60 78q-7 17-36 28 8-7 9-11c-14 8-17 10-23 8 38-20 37-80-2-83L53 35 37 50Q34 51 32 58 29 53 30 48 24 35 32 26C25 38 18 54 24 66Q18 65 17 62C16 63 19 78 21 80L16 77 19 84 39 90Q40 94 45 98 35 96 33 91 30 96 37 107Z" fill="#89b4fa" stroke-width="1" stroke-linecap="round" stroke="#b4befe"/><g stroke="#f38ba8" stroke-width="3" stroke-linecap="round"><line x2="48" y2="44" x1="32" y1="44"/><line x2="48" y2="48" x1="32" y1="48"/><line x2="48" y2="40" x1="32" y1="40"/></g><circle r="3" cx="34" cy="37" fill="#b4befe"/></svg>