<svg xmlns="http://www.w3.org/2000/svg" width="128" height="128"><g fill="#fe640b" stroke="#eff1f5"><polygon points="24 88 4 112 124 112 104 88" stroke-linejoin="bevel"/><polygon points="64 4 28 104 100 104"/><rect width="120" height="4" x="4" y="112" stroke-linejoin="bevel"/></g><g fill="#ccd0da" stroke="none"><polygon points="59 20 56 29 72 29 69 20"/><polygon points="54 36 50 48 78 48 74 36"/><polygon points="48 53 44 64 84 64 80 53"/><polygon points="42 69 38 80 90 80 86 69"/><polygon points="36 85 32 97 96 97 92 85"/></g></svg>