<?xml version="1.0" encoding="UTF-8"?>
<svg xmlns="http://www.w3.org/2000/svg" xmlns:xlink="http://www.w3.org/1999/xlink" width="64px" height="64px" viewBox="0 0 64 64" version="1.1">
<g id="surface1">
<path style="fill-rule:nonzero;fill:rgb(65.098041%,89.019608%,63.137257%);fill-opacity:1;stroke-width:1.5;stroke-linecap:butt;stroke-linejoin:miter;stroke:rgb(14.117648%,52.941179%,10.980392%);stroke-opacity:1;stroke-miterlimit:4;" d="M 22.999512 12 C 22.999512 5.925293 18.074707 1.000488 12 1.000488 C 5.925293 1.000488 1.000488 5.925293 1.000488 12 C 1.000488 18.074707 5.925293 22.999512 12 22.999512 C 18.074707 22.999512 22.999512 18.074707 22.999512 12 Z M 22.999512 12 " transform="matrix(2.666667,0,0,2.666667,0,0)"/>
<path style=" stroke:none;fill-rule:nonzero;fill:rgb(6.666667%,6.666667%,10.588235%);fill-opacity:1;" d="M 24 25.332031 L 53.332031 25.332031 C 54.804688 25.332031 56 26.527344 56 28 L 56 36 C 56 37.472656 54.804688 38.667969 53.332031 38.667969 L 24 38.667969 C 22.527344 38.667969 21.332031 37.472656 21.332031 36 L 21.332031 28 C 21.332031 26.527344 22.527344 25.332031 24 25.332031 Z M 24 25.332031 "/>
<path style=" stroke:none;fill-rule:nonzero;fill:rgb(6.666667%,6.666667%,10.588235%);fill-opacity:1;" d="M 29.332031 10.667969 L 8 32 L 29.332031 53.332031 Z M 29.332031 10.667969 "/>
</g>
</svg>
