<svg xmlns="http://www.w3.org/2000/svg" width="128" height="128"><polygon fill="#cdd6f4" stroke="#11111b" points="7 19 6 62 56 62 57 19 23 19 23 16 10 16 10 19" transform="matrix(2 0 0 2 -2 -5)"/><polygon fill="#1e1e2e" points="8 21 7 57 51 57 52 21" transform="matrix(2 0 0 2 0 0)"/><polygon fill="#cdd6f4" stroke="#11111b" points="4 57 54 57 62 24 26 24 25 31 11 31" transform="matrix(2 0 0 2 2 5)"/><g fill="none" stroke-width="3" stroke="#f38ba8" transform="scale(2 2) translate(-65 0)"><path d="M102 14A1 1 0 0 1 124 14"/><rect width="22" height="14" x="102" y="14" fill="#f38ba8"/><path d="M109 28l0-4-2-2a1 1 0 0 1 12 0l-2 2 0 4z" fill="#11111b"/></g></svg>