<svg xmlns="http://www.w3.org/2000/svg" width="128" height="128"><g fill="#b4befe" stroke="#1e1e2e" transform="matrix(1.5 0 0 1.5 70 30)"><path d="M0 0l0 28 16-12-6 0 0-16Z"/><path d="M32 28 32 0 16 12 22 12 22 28Z"/></g><g stroke="#1e1e2e" stroke-linecap="round"><circle r="40" cx="44" cy="84" fill="#74c7ec"/><path d="M44 44l0 80m0-80c-20 16-28 48 0 80 24-32 20-64 0-80-36 12-44 60 0 80 40-20 36-68 0-80" fill="none"/></g><g fill="#1e1e2e" stroke="#cdd6f4"><rect width="52" height="22" x="72" y="4"/><g stroke="none"><circle r="4" cx="88" cy="10" fill="#eba0ac"/><circle r="4" cx="98" cy="10" fill="#fab387"/><circle r="4" cx="78" cy="10" fill="#a6e3a1"/></g></g></svg>