<?xml version="1.0" encoding="UTF-8"?>
<svg xmlns="http://www.w3.org/2000/svg" xmlns:xlink="http://www.w3.org/1999/xlink" width="64px" height="64px" viewBox="0 0 64 64" version="1.1">
<g id="surface1">
<path style="fill-rule:nonzero;fill:rgb(65.098041%,89.019608%,63.137257%);fill-opacity:1;stroke-width:1.5;stroke-linecap:butt;stroke-linejoin:miter;stroke:rgb(11.372549%,38.82353%,18.82353%);stroke-opacity:1;stroke-miterlimit:4;" d="M 22.999512 12 C 22.999512 5.925293 18.074707 1.000488 12 1.000488 C 5.925293 1.000488 1.000488 5.925293 1.000488 12 C 1.000488 18.074707 5.925293 22.999512 12 22.999512 C 18.074707 22.999512 22.999512 18.074707 22.999512 12 Z M 22.999512 12 " transform="matrix(2.666667,0,0,2.666667,0,0)"/>
<path style=" stroke:none;fill-rule:nonzero;fill:rgb(6.666667%,6.666667%,10.588235%);fill-opacity:1;" d="M 10.667969 42.667969 L 10.667969 21.332031 L 21.332031 21.332031 L 32 10.667969 L 32 53.332031 L 21.332031 42.667969 Z M 10.667969 42.667969 "/>
<path style=" stroke:none;fill-rule:nonzero;fill:rgb(6.666667%,6.666667%,10.588235%);fill-opacity:1;" d="M 33.332031 21.332031 C 39.222656 21.332031 44 26.109375 44 32 C 44 37.890625 39.222656 42.667969 33.332031 42.667969 "/>
</g>
</svg>
